# xmcd
#
# Track frame offsets:
#	150
#	14761
#	29739
#	52443
#	74879
#	101386
#	116048
#	132165
#	154197
#
# Disc length: 2264 seconds
# Revision: 0
# Processed by: cddbd v1.5.2PL0 Copyright (c) Steve Scherf et al.
# Submitted via: dBpowerAMP V12.0
#
DISCID=8d08d609
DTITLE=Brady Clampitt - Things Are Different Now
DYEAR=2014
DGENRE=Blues
TTITLE0=I Wanna Love You
TTITLE1=Countin' on Love
TTITLE2=Things Are Different Now
TTITLE3=Nobody
TTITLE4=Wrap Me Up
TTITLE5=Wait For You
TTITLE6=Quit It
TTITLE7=Come Home
TTITLE8=Kiss the Wind
EXTD=
EXTT0=
EXTT1=
EXTT2=
EXTT3=
EXTT4=
EXTT5=
EXTT6=
EXTT7=
EXTT8=
PLAYORDER=
